<?xml version="1.0" encoding="UTF-8"?>
<svg id="Layer_1" xmlns="http://www.w3.org/2000/svg" xmlns:xlink="http://www.w3.org/1999/xlink" version="1.1" viewBox="0 0 327.81 59.55">
  <!-- Generator: Adobe Illustrator 30.2.1, SVG Export Plug-In . SVG Version: 2.1.1 Build 1)  -->
  <defs>
    <style>
      .st0 {
        fill: url(#linear-gradient);
      }
    </style>
    <linearGradient id="linear-gradient" x1="-510.28" y1="408.57" x2="-509.28" y2="408.57" gradientTransform="translate(27365.84 24360.25) scale(53.63 -59.55)" gradientUnits="userSpaceOnUse">
      <stop offset="0" stop-color="#0b2540"/>
      <stop offset="1" stop-color="#0f66a3"/>
    </linearGradient>
  </defs>
  <path id="path_1" class="st0" d="M28.91,47.63c2.85-.92,7.41-2.82,8.78-5.67.49-1.57.59-2.97-.85-4.63-.9-.78-1.89-1.29-2.97-1.7-.15.88-.46,1.61-1.11,2.22-3.64,3.41-12.64,4.36-17.37,3.34-1.26-.35-2.26-.73-3.15-1.73l-1.67,6.05c-2.92-3.95-5.12-8.24-6.73-12.93C1.82,26.6.74,20.5.34,14.19c-.2-2.82-.2-5.5.06-8.29L27.02,0l26.61,5.88c.31,3.24.22,6.4-.05,9.65-.46,5.38-1.33,10.6-2.96,15.73-2.46,8-6.85,15.04-13.01,20.68-3.22,2.95-6.7,5.51-10.59,7.61-4.21-2.27-7.99-5.04-11.38-8.36-1.84-.11-3.46-.4-5.28-.83-.15-.54-.16-1.03-.04-1.58,5.8,1.34,13.01.66,18.61-1.15h-.02ZM24.66,15.58c4.19-1.16,8.56-1.42,12.85-.74,1.6.35,2.98.83,4.19,1.9l2.65-9.64c-7.63-.4-18.07.57-24.96,3.64-1.74.77-3.33,1.82-4.5,3.25-1.46,1.78-1.19,4.1.66,5.38,1.15.8,2.37,1.37,3.85,1.72-.87-3.11,2.98-4.71,5.26-5.51ZM46.33,34.32c.09-4.29-3.34-6.68-7-7.92-2.72-.92-5.47-1.44-8.33-1.93l-9.17-1.57c-1.88-.32-3.63-.81-5.41-1.47-1-.37-1.91-.93-2.71-1.59-1.81-1.5-2.09-3.95-.78-5.9.85-1.27,2.1-2.12,3.33-3.06-2.91,1-5.53,2.82-7.17,5.36-2.78,4.29-2.6,9.53,1.86,12.5,1.87,1.24,3.9,1.93,6.11,2.41,5.39,1.16,10.54,1.45,15.83,2.82,2.01.52,3.86,1.28,5.45,2.56,1.68,1.35,2.24,3.37,1.41,5.38-.54,1.3-1.57,2.16-2.64,3.35,4.6-1.64,9.1-5.56,9.22-10.94Z"/>
</svg>