<?xml version="1.0" encoding="UTF-8"?>
<svg id="Layer_1" data-name="Layer 1" xmlns="http://www.w3.org/2000/svg" viewBox="0 0 327.81 59.55">
  <defs>
    <linearGradient id="brandGradient" x1="0%" y1="0%" x2="100%" y2="0%">
      <stop offset="0%" style="stop-color:#0b2540;stop-opacity:1" />
      <stop offset="100%" style="stop-color:#0f66a3;stop-opacity:1" />
    </linearGradient>
    <style>
      .cls-1 {
        fill: url(#brandGradient);
      }
    </style>
  </defs>
  <path id="path_1" data-name="path 1" class="cls-1" d="M132.81,47.63c2.85-.92,7.41-2.82,8.78-5.67.49-1.57.59-2.97-.85-4.63-.9-.78-1.89-1.29-2.97-1.7-.15.88-.46,1.61-1.11,2.22-3.64,3.41-12.64,4.36-17.37,3.34-1.26-.35-2.26-.73-3.15-1.73l-1.67,6.05c-2.92-3.95-5.12-8.24-6.73-12.93-2.02-5.98-3.1-12.08-3.5-18.39-.2-2.82-.2-5.5.06-8.29l26.62-5.9,26.61,5.88c.31,3.24.22,6.4-.05,9.65-.46,5.38-1.33,10.6-2.96,15.73-2.46,8-6.85,15.04-13.01,20.68-3.22,2.95-6.7,5.51-10.59,7.61-4.21-2.27-7.99-5.04-11.38-8.36-1.84-.11-3.46-.4-5.28-.83-.15-.54-.16-1.03-.04-1.58,5.8,1.34,13.01.66,18.61-1.15ZM128.56,15.58c4.19-1.16,8.56-1.42,12.85-.74,1.6.35,2.98.83,4.19,1.9l2.65-9.64c-7.63-.4-18.07.57-24.96,3.64-1.74.77-3.33,1.82-4.5,3.25-1.46,1.78-1.19,4.1.66,5.38,1.15.8,2.37,1.37,3.85,1.72-.87-3.11,2.98-4.71,5.26-5.51ZM150.23,34.32c.09-4.29-3.34-6.68-7-7.92-2.72-.92-5.47-1.44-8.33-1.93l-9.17-1.57c-1.88-.32-3.63-.81-5.41-1.47-1-.37-1.91-.93-2.71-1.59-1.81-1.5-2.09-3.95-.78-5.9.85-1.27,2.1-2.12,3.33-3.06-2.91,1-5.53,2.82-7.17,5.36-2.78,4.29-2.6,9.53,1.86,12.5,1.87,1.24,3.9,1.93,6.11,2.41,5.39,1.16,10.54,1.45,15.83,2.82,2.01.52,3.86,1.28,5.45,2.56,1.68,1.35,2.24,3.37,1.41,5.38-.54,1.3-1.57,2.16-2.64,3.35,4.6-1.64,9.1-5.56,9.22-10.94Z"/>
  <g>
    <path d="M8.38,5.23v45.5H0V5.23h8.38ZM24.78,5.23v7H6.34v-7h18.44ZM22.88,24.82v6.97H6.34v-6.97h16.53Z"/>
    <path d="M38.47,2.73v48h-8.03V2.73h8.03Z"/>
    <path d="M59.06,51.35c-2.25,0-4.25-.34-5.98-1.03-1.74-.69-3.21-1.69-4.42-3-1.21-1.31-2.13-2.93-2.77-4.84-.64-1.92-.95-4.11-.95-6.59v-3.03c0-2.79.32-5.22.97-7.3.65-2.07,1.55-3.8,2.7-5.17s2.55-2.4,4.19-3.08c1.64-.68,3.44-1.02,5.42-1.02,2.12,0,3.98.35,5.58,1.05,1.59.7,2.91,1.73,3.95,3.11,1.04,1.38,1.82,3.08,2.33,5.11.51,2.03.77,4.38.77,7.05v3.84h-22.31v-5.84h14.44v-.78c-.04-1.46-.21-2.7-.52-3.72-.3-1.02-.8-1.8-1.48-2.33s-1.61-.8-2.78-.8c-.92,0-1.7.18-2.36.55-.66.36-1.19.93-1.61,1.7-.42.77-.72,1.78-.92,3.03-.2,1.25-.3,2.78-.3,4.59v3.03c0,1.6.14,2.96.42,4.08.28,1.11.7,2.02,1.27,2.72.56.7,1.25,1.2,2.06,1.52s1.76.47,2.84.47c1.62,0,3.05-.29,4.28-.88,1.23-.58,2.29-1.39,3.19-2.41l3.34,4.91c-.6.81-1.43,1.61-2.47,2.39-1.04.78-2.29,1.42-3.75,1.92-1.46.5-3.17.75-5.12.75Z"/>
    <path d="M83,16.92l4.53,9.47,4.06-9.47h8.66l-8.78,16.56,9.09,17.25h-8.69l-4.62-9.78-4.56,9.78h-8.69l8.78-17.19-8.47-16.62h8.69Z"/>
    <path d="M173.62,51.35c-2.25,0-4.25-.34-5.98-1.03-1.74-.69-3.21-1.69-4.42-3-1.21-1.31-2.13-2.93-2.77-4.84-.64-1.92-.95-4.11-.95-6.59v-3.03c0-2.79.32-5.22.97-7.3.65-2.07,1.55-3.8,2.7-5.17s2.55-2.4,4.19-3.08c1.64-.68,3.44-1.02,5.42-1.02,2.12,0,3.98.35,5.58,1.05,1.59.7,2.91,1.73,3.95,3.11,1.04,1.38,1.82,3.08,2.33,5.11.51,2.03.77,4.38.77,7.05v3.84h-22.31v-5.84h14.44v-.78c-.04-1.46-.21-2.7-.52-3.72-.3-1.02-.8-1.8-1.48-2.33s-1.61-.8-2.78-.8c-.92,0-1.7.18-2.36.55-.66.36-1.19.93-1.61,1.7-.42.77-.72,1.78-.92,3.03-.2,1.25-.3,2.78-.3,4.59v3.03c0,1.6.14,2.96.42,4.08.28,1.11.7,2.02,1.27,2.72.56.7,1.25,1.2,2.06,1.52s1.76.47,2.84.47c1.62,0,3.05-.29,4.28-.88,1.23-.58,2.29-1.39,3.19-2.41l3.34,4.91c-.6.81-1.43,1.61-2.47,2.39-1.04.78-2.29,1.42-3.75,1.92-1.46.5-3.17.75-5.12.75Z"/>
    <path d="M198.75,24.14v26.59h-8.03V16.92h7.5l.53,7.22ZM197.44,32.64l-2.34.03c-.02-2.48.23-4.72.77-6.73.53-2.01,1.3-3.73,2.3-5.17s2.19-2.54,3.58-3.31c1.39-.77,2.94-1.16,4.67-1.16,1.35,0,2.58.23,3.67.69,1.09.46,2.04,1.19,2.83,2.19.79,1,1.41,2.31,1.84,3.94s.66,3.62.66,6v21.62h-8.03v-21.72c0-1.52-.16-2.71-.48-3.58-.32-.86-.79-1.48-1.41-1.84-.61-.36-1.4-.55-2.36-.55-.9,0-1.7.25-2.41.75-.71.5-1.31,1.19-1.8,2.06-.49.88-.86,1.89-1.12,3.05-.26,1.16-.38,2.4-.36,3.73Z"/>
    <path d="M236.44,16.92v6.09h-16.94v-6.09h16.94ZM223.78,8.6h8v32.25c0,.98.1,1.73.3,2.27.2.53.5.89.91,1.08s.9.28,1.48.28c.44,0,.85-.03,1.23-.09.39-.06.67-.12.86-.19v6.34c-.6.25-1.27.45-2,.59-.73.15-1.61.22-2.66.22-1.62,0-3.04-.32-4.25-.95-1.21-.64-2.16-1.68-2.84-3.12-.69-1.45-1.03-3.35-1.03-5.7V8.6Z"/>
    <path d="M241.72,8.1c0-1.27.4-2.32,1.19-3.14.79-.82,1.88-1.23,3.25-1.23s2.45.41,3.22,1.23c.77.82,1.16,1.87,1.16,3.14s-.39,2.27-1.16,3.11c-.77.84-1.84,1.27-3.22,1.27s-2.46-.42-3.25-1.27c-.79-.84-1.19-1.88-1.19-3.11ZM250.16,16.92v33.81h-8.03V16.92h8.03Z"/>
    <path d="M265.38,24.14v26.59h-8.03V16.92h7.5l.53,7.22ZM264.06,32.64l-2.34.03c-.02-2.48.23-4.72.77-6.73.53-2.01,1.3-3.73,2.3-5.17s2.19-2.54,3.58-3.31c1.39-.77,2.94-1.16,4.67-1.16,1.35,0,2.58.23,3.67.69,1.09.46,2.04,1.19,2.83,2.19.79,1,1.41,2.31,1.84,3.94s.66,3.62.66,6v21.62h-8.03v-21.72c0-1.52-.16-2.71-.48-3.58-.32-.86-.79-1.48-1.41-1.84-.61-.36-1.4-.55-2.36-.55-.9,0-1.7.25-2.41.75-.71.5-1.31,1.19-1.8,2.06-.49.88-.86,1.89-1.12,3.05-.26,1.16-.38,2.4-.36,3.73Z"/>
    <path d="M302.12,51.35c-2.25,0-4.25-.34-5.98-1.03-1.74-.69-3.21-1.69-4.42-3-1.21-1.31-2.13-2.93-2.77-4.84-.64-1.92-.95-4.11-.95-6.59v-3.03c0-2.79.32-5.22.97-7.3.65-2.07,1.55-3.8,2.7-5.17s2.55-2.4,4.19-3.08c1.64-.68,3.44-1.02,5.42-1.02,2.12,0,3.98.35,5.58,1.05,1.59.7,2.91,1.73,3.95,3.11,1.04,1.38,1.82,3.08,2.33,5.11.51,2.03.77,4.38.77,7.05v3.84h-22.31v-5.84h14.44v-.78c-.04-1.46-.21-2.7-.52-3.72-.3-1.02-.8-1.8-1.48-2.33s-1.61-.8-2.78-.8c-.92,0-1.7.18-2.36.55-.66.36-1.19.93-1.61,1.7-.42.77-.72,1.78-.92,3.03-.2,1.25-.3,2.78-.3,4.59v3.03c0,1.6.14,2.96.42,4.08.28,1.11.7,2.02,1.27,2.72.56.7,1.25,1.2,2.06,1.52s1.76.47,2.84.47c1.62,0,3.05-.29,4.28-.88,1.23-.58,2.29-1.39,3.19-2.41l3.34,4.91c-.6.81-1.43,1.61-2.47,2.39-1.04.78-2.29,1.42-3.75,1.92-1.46.5-3.17.75-5.12.75Z"/>
    <path d="M327.81,2.73v48h-8.03V2.73h8.03Z"/>
  </g>
</svg>